<?xml version="1.0" standalone="no"?>
<!DOCTYPE svg PUBLIC "-//W3C//DTD SVG 20010904//EN"
 "http://www.w3.org/TR/2001/REC-SVG-20010904/DTD/svg10.dtd">
<svg version="1.0" xmlns="http://www.w3.org/2000/svg"
 width="225.000000pt" height="225.000000pt" viewBox="0 0 225.000000 225.000000"
 preserveAspectRatio="xMidYMid meet">

<g transform="translate(0.000000,225.000000) scale(0.100000,-0.100000)"
fill="#000000" stroke="none">
<path d="M1835 1986 c-74 -34 -140 -90 -340 -287 l-180 -177 -65 14 c-36 7
-150 30 -255 49 -104 20 -221 42 -260 50 -155 32 -338 65 -359 65 -29 0 -116
-89 -116 -119 0 -19 23 -33 163 -101 349 -168 474 -227 525 -250 l53 -24 -153
-154 c-131 -131 -157 -152 -178 -148 -14 2 -87 21 -163 42 l-138 37 -54 -53
c-30 -30 -55 -62 -55 -71 0 -23 24 -39 209 -140 173 -95 149 -68 284 -309 62
-109 87 -146 104 -148 15 -2 36 12 72 49 28 29 51 57 51 63 0 6 -16 69 -36
141 -20 72 -38 141 -40 155 -4 21 17 47 148 177 l153 152 75 -157 c277 -581
275 -577 299 -580 28 -4 121 81 121 111 0 17 -22 135 -96 522 -14 72 -36 190
-50 264 -14 74 -28 139 -31 144 -3 4 76 90 174 190 199 202 255 268 289 342
64 135 -16 215 -151 151z"/>
</g>
</svg>
